<mxfile host="65bd71144e">
    <diagram id="R2lEEEUBdFMjLlhIrx00" name="Page-1">
        <mxGraphModel dx="2010" dy="790" grid="1" gridSize="10" guides="1" tooltips="1" connect="1" arrows="1" fold="1" page="1" pageScale="1" pageWidth="850" pageHeight="1100" math="0" shadow="0" extFonts="Permanent Marker^https://fonts.googleapis.com/css?family=Permanent+Marker">
            <root>
                <mxCell id="0"/>
                <mxCell id="1" parent="0"/>
                <mxCell id="3pUokIxNdo1e3XjNeTQa-15" value="" style="rhombus;whiteSpace=wrap;html=1;shadow=1;" parent="1" vertex="1">
                    <mxGeometry x="-30" y="298" width="120" height="60" as="geometry"/>
                </mxCell>
                <mxCell id="3pUokIxNdo1e3XjNeTQa-14" value="" style="rhombus;whiteSpace=wrap;html=1;shadow=1;" parent="1" vertex="1">
                    <mxGeometry x="170" y="205" width="120" height="60" as="geometry"/>
                </mxCell>
                <mxCell id="M0YwCfA4mjr5i9VfoFUj-1" value="Book" style="swimlane;fontStyle=0;childLayout=stackLayout;horizontal=1;startSize=26;horizontalStack=0;resizeParent=1;resizeParentMax=0;resizeLast=0;collapsible=1;marginBottom=0;align=center;fontSize=14;" parent="1" vertex="1">
                    <mxGeometry x="-300" y="310" width="160" height="146" as="geometry"/>
                </mxCell>
                <mxCell id="M0YwCfA4mjr5i9VfoFUj-2" value="ISBN" style="text;strokeColor=none;fillColor=none;spacingLeft=4;spacingRight=4;overflow=hidden;rotatable=0;points=[[0,0.5],[1,0.5]];portConstraint=eastwest;fontSize=12;fontStyle=4" parent="M0YwCfA4mjr5i9VfoFUj-1" vertex="1">
                    <mxGeometry y="26" width="160" height="30" as="geometry"/>
                </mxCell>
                <mxCell id="M0YwCfA4mjr5i9VfoFUj-3" value="title" style="text;strokeColor=none;fillColor=none;spacingLeft=4;spacingRight=4;overflow=hidden;rotatable=0;points=[[0,0.5],[1,0.5]];portConstraint=eastwest;fontSize=12;" parent="M0YwCfA4mjr5i9VfoFUj-1" vertex="1">
                    <mxGeometry y="56" width="160" height="30" as="geometry"/>
                </mxCell>
                <mxCell id="6Vq29FL__fgsb-6oe8JI-12" value="# pages" style="text;strokeColor=none;fillColor=none;spacingLeft=4;spacingRight=4;overflow=hidden;rotatable=0;points=[[0,0.5],[1,0.5]];portConstraint=eastwest;fontSize=12;" parent="M0YwCfA4mjr5i9VfoFUj-1" vertex="1">
                    <mxGeometry y="86" width="160" height="30" as="geometry"/>
                </mxCell>
                <mxCell id="3pUokIxNdo1e3XjNeTQa-11" value="description" style="text;strokeColor=none;fillColor=none;spacingLeft=4;spacingRight=4;overflow=hidden;rotatable=0;points=[[0,0.5],[1,0.5]];portConstraint=eastwest;fontSize=12;" parent="M0YwCfA4mjr5i9VfoFUj-1" vertex="1">
                    <mxGeometry y="116" width="160" height="30" as="geometry"/>
                </mxCell>
                <mxCell id="M0YwCfA4mjr5i9VfoFUj-5" value="Bookshelf" style="swimlane;fontStyle=0;childLayout=stackLayout;horizontal=1;startSize=26;horizontalStack=0;resizeParent=1;resizeParentMax=0;resizeLast=0;collapsible=1;marginBottom=0;align=center;fontSize=14;" parent="1" vertex="1">
                    <mxGeometry x="300" y="75" width="160" height="116" as="geometry"/>
                </mxCell>
                <mxCell id="M0YwCfA4mjr5i9VfoFUj-6" value="ID" style="text;strokeColor=none;fillColor=none;spacingLeft=4;spacingRight=4;overflow=hidden;rotatable=0;points=[[0,0.5],[1,0.5]];portConstraint=eastwest;fontSize=12;fontStyle=4" parent="M0YwCfA4mjr5i9VfoFUj-5" vertex="1">
                    <mxGeometry y="26" width="160" height="30" as="geometry"/>
                </mxCell>
                <mxCell id="M0YwCfA4mjr5i9VfoFUj-8" value="capacity" style="text;strokeColor=none;fillColor=none;spacingLeft=4;spacingRight=4;overflow=hidden;rotatable=0;points=[[0,0.5],[1,0.5]];portConstraint=eastwest;fontSize=12;" parent="M0YwCfA4mjr5i9VfoFUj-5" vertex="1">
                    <mxGeometry y="56" width="160" height="30" as="geometry"/>
                </mxCell>
                <mxCell id="RutCKX_S9ad8p6_v9QBn-16" value="current_amount" style="text;strokeColor=none;fillColor=none;spacingLeft=4;spacingRight=4;overflow=hidden;rotatable=0;points=[[0,0.5],[1,0.5]];portConstraint=eastwest;fontSize=12;" parent="M0YwCfA4mjr5i9VfoFUj-5" vertex="1">
                    <mxGeometry y="86" width="160" height="30" as="geometry"/>
                </mxCell>
                <mxCell id="M0YwCfA4mjr5i9VfoFUj-9" value="Location" style="swimlane;fontStyle=0;childLayout=stackLayout;horizontal=1;startSize=26;horizontalStack=0;resizeParent=1;resizeParentMax=0;resizeLast=0;collapsible=1;marginBottom=0;align=center;fontSize=14;" parent="1" vertex="1">
                    <mxGeometry x="700" y="260" width="160" height="170" as="geometry"/>
                </mxCell>
                <mxCell id="M0YwCfA4mjr5i9VfoFUj-11" value="ID" style="text;strokeColor=none;fillColor=none;spacingLeft=4;spacingRight=4;overflow=hidden;rotatable=0;points=[[0,0.5],[1,0.5]];portConstraint=eastwest;fontSize=12;fontStyle=4" parent="M0YwCfA4mjr5i9VfoFUj-9" vertex="1">
                    <mxGeometry y="26" width="160" height="30" as="geometry"/>
                </mxCell>
                <mxCell id="2" value="place {&#10;    building&#10;    floor&#10;    room&#10;}" style="text;strokeColor=none;fillColor=none;spacingLeft=4;spacingRight=4;overflow=hidden;rotatable=0;points=[[0,0.5],[1,0.5]];portConstraint=eastwest;fontSize=12;fontStyle=0" parent="M0YwCfA4mjr5i9VfoFUj-9" vertex="1">
                    <mxGeometry y="56" width="160" height="84" as="geometry"/>
                </mxCell>
                <mxCell id="m7qZ3WIpsGeV1RLe8qS_-42" value="open_hour" style="text;strokeColor=none;fillColor=none;spacingLeft=4;spacingRight=4;overflow=hidden;rotatable=0;points=[[0,0.5],[1,0.5]];portConstraint=eastwest;fontSize=12;fontStyle=0" parent="M0YwCfA4mjr5i9VfoFUj-9" vertex="1">
                    <mxGeometry y="140" width="160" height="30" as="geometry"/>
                </mxCell>
                <mxCell id="M0YwCfA4mjr5i9VfoFUj-31" style="edgeStyle=orthogonalEdgeStyle;shape=link;rounded=0;orthogonalLoop=1;jettySize=auto;html=1;exitX=0;exitY=0.5;exitDx=0;exitDy=0;" parent="1" source="M0YwCfA4mjr5i9VfoFUj-13" target="6Vq29FL__fgsb-6oe8JI-7" edge="1">
                    <mxGeometry relative="1" as="geometry">
                        <mxPoint x="220" y="-20" as="targetPoint"/>
                    </mxGeometry>
                </mxCell>
                <mxCell id="M0YwCfA4mjr5i9VfoFUj-72" style="edgeStyle=orthogonalEdgeStyle;rounded=0;orthogonalLoop=1;jettySize=auto;html=1;exitX=1;exitY=0.5;exitDx=0;exitDy=0;" parent="1" source="M0YwCfA4mjr5i9VfoFUj-13" target="M0YwCfA4mjr5i9VfoFUj-5" edge="1">
                    <mxGeometry relative="1" as="geometry"/>
                </mxCell>
                <mxCell id="M0YwCfA4mjr5i9VfoFUj-13" value="stored_in" style="rhombus;whiteSpace=wrap;html=1;" parent="1" vertex="1">
                    <mxGeometry x="160" y="108" width="100" height="50" as="geometry"/>
                </mxCell>
                <mxCell id="M0YwCfA4mjr5i9VfoFUj-33" style="edgeStyle=orthogonalEdgeStyle;rounded=0;orthogonalLoop=1;jettySize=auto;html=1;exitX=0;exitY=0.5;exitDx=0;exitDy=0;shape=link;" parent="1" source="M0YwCfA4mjr5i9VfoFUj-14" target="M0YwCfA4mjr5i9VfoFUj-5" edge="1">
                    <mxGeometry relative="1" as="geometry"/>
                </mxCell>
                <mxCell id="M0YwCfA4mjr5i9VfoFUj-73" style="edgeStyle=orthogonalEdgeStyle;rounded=0;orthogonalLoop=1;jettySize=auto;html=1;exitX=0.5;exitY=1;exitDx=0;exitDy=0;" parent="1" source="M0YwCfA4mjr5i9VfoFUj-14" target="M0YwCfA4mjr5i9VfoFUj-9" edge="1">
                    <mxGeometry relative="1" as="geometry">
                        <mxPoint x="590" y="123" as="targetPoint"/>
                    </mxGeometry>
                </mxCell>
                <mxCell id="M0YwCfA4mjr5i9VfoFUj-14" value="located_at" style="rhombus;whiteSpace=wrap;html=1;" parent="1" vertex="1">
                    <mxGeometry x="730" y="108" width="100" height="50" as="geometry"/>
                </mxCell>
                <mxCell id="M0YwCfA4mjr5i9VfoFUj-15" value="Author" style="swimlane;fontStyle=0;childLayout=stackLayout;horizontal=1;startSize=26;horizontalStack=0;resizeParent=1;resizeParentMax=0;resizeLast=0;collapsible=1;marginBottom=0;align=center;fontSize=14;" parent="1" vertex="1">
                    <mxGeometry x="-430" y="690" width="160" height="146" as="geometry"/>
                </mxCell>
                <mxCell id="M0YwCfA4mjr5i9VfoFUj-16" value="ID" style="text;strokeColor=none;fillColor=none;spacingLeft=4;spacingRight=4;overflow=hidden;rotatable=0;points=[[0,0.5],[1,0.5]];portConstraint=eastwest;fontSize=12;fontStyle=4" parent="M0YwCfA4mjr5i9VfoFUj-15" vertex="1">
                    <mxGeometry y="26" width="160" height="30" as="geometry"/>
                </mxCell>
                <mxCell id="M0YwCfA4mjr5i9VfoFUj-17" value="name" style="text;strokeColor=none;fillColor=none;spacingLeft=4;spacingRight=4;overflow=hidden;rotatable=0;points=[[0,0.5],[1,0.5]];portConstraint=eastwest;fontSize=12;" parent="M0YwCfA4mjr5i9VfoFUj-15" vertex="1">
                    <mxGeometry y="56" width="160" height="30" as="geometry"/>
                </mxCell>
                <mxCell id="M0YwCfA4mjr5i9VfoFUj-18" value="nationality" style="text;strokeColor=none;fillColor=none;spacingLeft=4;spacingRight=4;overflow=hidden;rotatable=0;points=[[0,0.5],[1,0.5]];portConstraint=eastwest;fontSize=12;" parent="M0YwCfA4mjr5i9VfoFUj-15" vertex="1">
                    <mxGeometry y="86" width="160" height="30" as="geometry"/>
                </mxCell>
                <mxCell id="M0YwCfA4mjr5i9VfoFUj-23" value="birth_year" style="text;strokeColor=none;fillColor=none;spacingLeft=4;spacingRight=4;overflow=hidden;rotatable=0;points=[[0,0.5],[1,0.5]];portConstraint=eastwest;fontSize=12;" parent="M0YwCfA4mjr5i9VfoFUj-15" vertex="1">
                    <mxGeometry y="116" width="160" height="30" as="geometry"/>
                </mxCell>
                <mxCell id="M0YwCfA4mjr5i9VfoFUj-19" value="Publisher" style="swimlane;fontStyle=0;childLayout=stackLayout;horizontal=1;startSize=26;horizontalStack=0;resizeParent=1;resizeParentMax=0;resizeLast=0;collapsible=1;marginBottom=0;align=center;fontSize=14;" parent="1" vertex="1">
                    <mxGeometry x="-230" y="690" width="160" height="116" as="geometry"/>
                </mxCell>
                <mxCell id="M0YwCfA4mjr5i9VfoFUj-20" value="ID" style="text;strokeColor=none;fillColor=none;spacingLeft=4;spacingRight=4;overflow=hidden;rotatable=0;points=[[0,0.5],[1,0.5]];portConstraint=eastwest;fontSize=12;fontStyle=4" parent="M0YwCfA4mjr5i9VfoFUj-19" vertex="1">
                    <mxGeometry y="26" width="160" height="30" as="geometry"/>
                </mxCell>
                <mxCell id="M0YwCfA4mjr5i9VfoFUj-21" value="name" style="text;strokeColor=none;fillColor=none;spacingLeft=4;spacingRight=4;overflow=hidden;rotatable=0;points=[[0,0.5],[1,0.5]];portConstraint=eastwest;fontSize=12;" parent="M0YwCfA4mjr5i9VfoFUj-19" vertex="1">
                    <mxGeometry y="56" width="160" height="30" as="geometry"/>
                </mxCell>
                <mxCell id="M0YwCfA4mjr5i9VfoFUj-22" value="address" style="text;strokeColor=none;fillColor=none;spacingLeft=4;spacingRight=4;overflow=hidden;rotatable=0;points=[[0,0.5],[1,0.5]];portConstraint=eastwest;fontSize=12;" parent="M0YwCfA4mjr5i9VfoFUj-19" vertex="1">
                    <mxGeometry y="86" width="160" height="30" as="geometry"/>
                </mxCell>
                <mxCell id="M0YwCfA4mjr5i9VfoFUj-26" style="edgeStyle=orthogonalEdgeStyle;rounded=0;orthogonalLoop=1;jettySize=auto;html=1;exitX=0.5;exitY=0;exitDx=0;exitDy=0;shape=link;" parent="1" source="M0YwCfA4mjr5i9VfoFUj-24" target="M0YwCfA4mjr5i9VfoFUj-1" edge="1">
                    <mxGeometry relative="1" as="geometry">
                        <Array as="points">
                            <mxPoint x="-350" y="530"/>
                            <mxPoint x="-270" y="530"/>
                        </Array>
                    </mxGeometry>
                </mxCell>
                <mxCell id="M0YwCfA4mjr5i9VfoFUj-24" value="written_by" style="rhombus;whiteSpace=wrap;html=1;" parent="1" vertex="1">
                    <mxGeometry x="-400" y="603" width="100" height="50" as="geometry"/>
                </mxCell>
                <mxCell id="M0YwCfA4mjr5i9VfoFUj-28" style="edgeStyle=orthogonalEdgeStyle;rounded=0;orthogonalLoop=1;jettySize=auto;html=1;shape=link;" parent="1" source="M0YwCfA4mjr5i9VfoFUj-25" target="M0YwCfA4mjr5i9VfoFUj-1" edge="1">
                    <mxGeometry relative="1" as="geometry"/>
                </mxCell>
                <mxCell id="M0YwCfA4mjr5i9VfoFUj-25" value="published_by" style="rhombus;whiteSpace=wrap;html=1;" parent="1" vertex="1">
                    <mxGeometry x="-200" y="603" width="100" height="50" as="geometry"/>
                </mxCell>
                <mxCell id="M0YwCfA4mjr5i9VfoFUj-44" value="Guest" style="swimlane;fontStyle=0;childLayout=stackLayout;horizontal=1;startSize=26;horizontalStack=0;resizeParent=1;resizeParentMax=0;resizeLast=0;collapsible=1;marginBottom=0;align=center;fontSize=14;" parent="1" vertex="1">
                    <mxGeometry x="150" y="610" width="160" height="116" as="geometry"/>
                </mxCell>
                <mxCell id="M0YwCfA4mjr5i9VfoFUj-45" value="credit_level" style="text;strokeColor=none;fillColor=none;spacingLeft=4;spacingRight=4;overflow=hidden;rotatable=0;points=[[0,0.5],[1,0.5]];portConstraint=eastwest;fontSize=12;fontStyle=0" parent="M0YwCfA4mjr5i9VfoFUj-44" vertex="1">
                    <mxGeometry y="26" width="160" height="30" as="geometry"/>
                </mxCell>
                <mxCell id="6Vq29FL__fgsb-6oe8JI-16" value="remaining_credit" style="text;strokeColor=none;fillColor=none;spacingLeft=4;spacingRight=4;overflow=hidden;rotatable=0;points=[[0,0.5],[1,0.5]];portConstraint=eastwest;fontSize=12;" parent="M0YwCfA4mjr5i9VfoFUj-44" vertex="1">
                    <mxGeometry y="56" width="160" height="30" as="geometry"/>
                </mxCell>
                <mxCell id="m7qZ3WIpsGeV1RLe8qS_-4" value="late_fee" style="text;strokeColor=none;fillColor=none;spacingLeft=4;spacingRight=4;overflow=hidden;rotatable=0;points=[[0,0.5],[1,0.5]];portConstraint=eastwest;fontSize=12;" parent="M0YwCfA4mjr5i9VfoFUj-44" vertex="1">
                    <mxGeometry y="86" width="160" height="30" as="geometry"/>
                </mxCell>
                <mxCell id="M0YwCfA4mjr5i9VfoFUj-52" value="People" style="swimlane;fontStyle=0;childLayout=stackLayout;horizontal=1;startSize=26;horizontalStack=0;resizeParent=1;resizeParentMax=0;resizeLast=0;collapsible=1;marginBottom=0;align=center;fontSize=14;" parent="1" vertex="1">
                    <mxGeometry x="330" y="808" width="160" height="146" as="geometry"/>
                </mxCell>
                <mxCell id="M0YwCfA4mjr5i9VfoFUj-53" value="ID" style="text;strokeColor=none;fillColor=none;spacingLeft=4;spacingRight=4;overflow=hidden;rotatable=0;points=[[0,0.5],[1,0.5]];portConstraint=eastwest;fontSize=12;fontStyle=4" parent="M0YwCfA4mjr5i9VfoFUj-52" vertex="1">
                    <mxGeometry y="26" width="160" height="30" as="geometry"/>
                </mxCell>
                <mxCell id="m7qZ3WIpsGeV1RLe8qS_-3" value="username" style="text;strokeColor=none;fillColor=none;spacingLeft=4;spacingRight=4;overflow=hidden;rotatable=0;points=[[0,0.5],[1,0.5]];portConstraint=eastwest;fontSize=12;fontStyle=0" parent="M0YwCfA4mjr5i9VfoFUj-52" vertex="1">
                    <mxGeometry y="56" width="160" height="30" as="geometry"/>
                </mxCell>
                <mxCell id="m7qZ3WIpsGeV1RLe8qS_-9" value="password" style="text;strokeColor=none;fillColor=none;spacingLeft=4;spacingRight=4;overflow=hidden;rotatable=0;points=[[0,0.5],[1,0.5]];portConstraint=eastwest;fontSize=12;fontStyle=0" parent="M0YwCfA4mjr5i9VfoFUj-52" vertex="1">
                    <mxGeometry y="86" width="160" height="30" as="geometry"/>
                </mxCell>
                <mxCell id="3" value="is_guest" style="text;strokeColor=none;fillColor=none;spacingLeft=4;spacingRight=4;overflow=hidden;rotatable=0;points=[[0,0.5],[1,0.5]];portConstraint=eastwest;fontSize=12;fontStyle=0" vertex="1" parent="M0YwCfA4mjr5i9VfoFUj-52">
                    <mxGeometry y="116" width="160" height="30" as="geometry"/>
                </mxCell>
                <mxCell id="M0YwCfA4mjr5i9VfoFUj-56" value="Administrator" style="swimlane;fontStyle=0;childLayout=stackLayout;horizontal=1;startSize=26;horizontalStack=0;resizeParent=1;resizeParentMax=0;resizeLast=0;collapsible=1;marginBottom=0;align=center;fontSize=14;" parent="1" vertex="1">
                    <mxGeometry x="700" y="645" width="160" height="86" as="geometry"/>
                </mxCell>
                <mxCell id="m7qZ3WIpsGeV1RLe8qS_-21" value="can_edit_books" style="text;strokeColor=none;fillColor=none;spacingLeft=4;spacingRight=4;overflow=hidden;rotatable=0;points=[[0,0.5],[1,0.5]];portConstraint=eastwest;fontSize=12;" parent="M0YwCfA4mjr5i9VfoFUj-56" vertex="1">
                    <mxGeometry y="26" width="160" height="30" as="geometry"/>
                </mxCell>
                <mxCell id="m7qZ3WIpsGeV1RLe8qS_-43" value="can_host_event" style="text;strokeColor=none;fillColor=none;spacingLeft=4;spacingRight=4;overflow=hidden;rotatable=0;points=[[0,0.5],[1,0.5]];portConstraint=eastwest;fontSize=12;" parent="M0YwCfA4mjr5i9VfoFUj-56" vertex="1">
                    <mxGeometry y="56" width="160" height="30" as="geometry"/>
                </mxCell>
                <mxCell id="M0YwCfA4mjr5i9VfoFUj-63" value="" style="endArrow=none;html=1;rounded=0;" parent="1" source="M0YwCfA4mjr5i9VfoFUj-15" target="M0YwCfA4mjr5i9VfoFUj-24" edge="1">
                    <mxGeometry width="50" height="50" relative="1" as="geometry">
                        <mxPoint x="-430" y="740" as="sourcePoint"/>
                        <mxPoint x="-380" y="690" as="targetPoint"/>
                    </mxGeometry>
                </mxCell>
                <mxCell id="M0YwCfA4mjr5i9VfoFUj-64" value="" style="endArrow=none;html=1;rounded=0;" parent="1" source="M0YwCfA4mjr5i9VfoFUj-19" target="M0YwCfA4mjr5i9VfoFUj-25" edge="1">
                    <mxGeometry width="50" height="50" relative="1" as="geometry">
                        <mxPoint x="-490" y="687" as="sourcePoint"/>
                        <mxPoint x="-440" y="637" as="targetPoint"/>
                    </mxGeometry>
                </mxCell>
                <mxCell id="M0YwCfA4mjr5i9VfoFUj-76" value="" style="endArrow=block;endSize=16;endFill=0;html=1;rounded=0;edgeStyle=orthogonalEdgeStyle;" parent="1" source="M0YwCfA4mjr5i9VfoFUj-44" target="M0YwCfA4mjr5i9VfoFUj-52" edge="1">
                    <mxGeometry width="160" relative="1" as="geometry">
                        <mxPoint x="-35" y="708" as="sourcePoint"/>
                        <mxPoint x="125" y="708" as="targetPoint"/>
                        <Array as="points">
                            <mxPoint x="230" y="760"/>
                            <mxPoint x="410" y="760"/>
                        </Array>
                    </mxGeometry>
                </mxCell>
                <mxCell id="M0YwCfA4mjr5i9VfoFUj-77" value="" style="endArrow=block;endSize=16;endFill=0;html=1;rounded=0;edgeStyle=orthogonalEdgeStyle;" parent="1" source="M0YwCfA4mjr5i9VfoFUj-56" target="M0YwCfA4mjr5i9VfoFUj-52" edge="1">
                    <mxGeometry width="160" relative="1" as="geometry">
                        <mxPoint x="115" y="788" as="sourcePoint"/>
                        <mxPoint x="215" y="704" as="targetPoint"/>
                        <Array as="points">
                            <mxPoint x="840" y="760"/>
                            <mxPoint x="410" y="760"/>
                        </Array>
                    </mxGeometry>
                </mxCell>
                <mxCell id="M0YwCfA4mjr5i9VfoFUj-84" value="Borrowing" style="swimlane;fontStyle=0;childLayout=stackLayout;horizontal=1;startSize=26;horizontalStack=0;resizeParent=1;resizeParentMax=0;resizeLast=0;collapsible=1;marginBottom=0;align=center;fontSize=14;" parent="1" vertex="1">
                    <mxGeometry x="150" y="326" width="160" height="176" as="geometry"/>
                </mxCell>
                <mxCell id="M0YwCfA4mjr5i9VfoFUj-85" value="borrowing_ID" style="text;strokeColor=none;fillColor=none;spacingLeft=4;spacingRight=4;overflow=hidden;rotatable=0;points=[[0,0.5],[1,0.5]];portConstraint=eastwest;fontSize=12;fontStyle=4" parent="M0YwCfA4mjr5i9VfoFUj-84" vertex="1">
                    <mxGeometry y="26" width="160" height="30" as="geometry"/>
                </mxCell>
                <mxCell id="M0YwCfA4mjr5i9VfoFUj-86" value="borrow_date" style="text;strokeColor=none;fillColor=none;spacingLeft=4;spacingRight=4;overflow=hidden;rotatable=0;points=[[0,0.5],[1,0.5]];portConstraint=eastwest;fontSize=12;" parent="M0YwCfA4mjr5i9VfoFUj-84" vertex="1">
                    <mxGeometry y="56" width="160" height="30" as="geometry"/>
                </mxCell>
                <mxCell id="M0YwCfA4mjr5i9VfoFUj-108" value="return_date" style="text;strokeColor=none;fillColor=none;spacingLeft=4;spacingRight=4;overflow=hidden;rotatable=0;points=[[0,0.5],[1,0.5]];portConstraint=eastwest;fontSize=12;" parent="M0YwCfA4mjr5i9VfoFUj-84" vertex="1">
                    <mxGeometry y="86" width="160" height="30" as="geometry"/>
                </mxCell>
                <mxCell id="M0YwCfA4mjr5i9VfoFUj-109" value="return_deadline" style="text;strokeColor=none;fillColor=none;spacingLeft=4;spacingRight=4;overflow=hidden;rotatable=0;points=[[0,0.5],[1,0.5]];portConstraint=eastwest;fontSize=12;" parent="M0YwCfA4mjr5i9VfoFUj-84" vertex="1">
                    <mxGeometry y="116" width="160" height="30" as="geometry"/>
                </mxCell>
                <mxCell id="m7qZ3WIpsGeV1RLe8qS_-22" value="extend_number" style="text;strokeColor=none;fillColor=none;spacingLeft=4;spacingRight=4;overflow=hidden;rotatable=0;points=[[0,0.5],[1,0.5]];portConstraint=eastwest;fontSize=12;" parent="M0YwCfA4mjr5i9VfoFUj-84" vertex="1">
                    <mxGeometry y="146" width="160" height="30" as="geometry"/>
                </mxCell>
                <mxCell id="M0YwCfA4mjr5i9VfoFUj-88" style="edgeStyle=orthogonalEdgeStyle;rounded=0;orthogonalLoop=1;jettySize=auto;html=1;shape=link;" parent="1" source="M0YwCfA4mjr5i9VfoFUj-87" target="3pUokIxNdo1e3XjNeTQa-12" edge="1">
                    <mxGeometry relative="1" as="geometry"/>
                </mxCell>
                <mxCell id="M0YwCfA4mjr5i9VfoFUj-89" style="edgeStyle=orthogonalEdgeStyle;rounded=0;orthogonalLoop=1;jettySize=auto;html=1;exitX=0.5;exitY=1;exitDx=0;exitDy=0;" parent="1" source="M0YwCfA4mjr5i9VfoFUj-87" target="M0YwCfA4mjr5i9VfoFUj-44" edge="1">
                    <mxGeometry relative="1" as="geometry">
                        <mxPoint x="230" y="618" as="sourcePoint"/>
                        <Array as="points"/>
                    </mxGeometry>
                </mxCell>
                <mxCell id="M0YwCfA4mjr5i9VfoFUj-87" value="made_by" style="rhombus;whiteSpace=wrap;html=1;" parent="1" vertex="1">
                    <mxGeometry x="180" y="534" width="100" height="50" as="geometry"/>
                </mxCell>
                <mxCell id="M0YwCfA4mjr5i9VfoFUj-91" style="edgeStyle=orthogonalEdgeStyle;shape=link;rounded=0;orthogonalLoop=1;jettySize=auto;html=1;" parent="1" source="3pUokIxNdo1e3XjNeTQa-14" target="3pUokIxNdo1e3XjNeTQa-12" edge="1">
                    <mxGeometry relative="1" as="geometry"/>
                </mxCell>
                <mxCell id="M0YwCfA4mjr5i9VfoFUj-90" value="copy_borrowing" style="rhombus;whiteSpace=wrap;html=1;" parent="1" vertex="1">
                    <mxGeometry x="180" y="210" width="100" height="50" as="geometry"/>
                </mxCell>
                <mxCell id="M0YwCfA4mjr5i9VfoFUj-94" value="" style="endArrow=none;html=1;rounded=0;edgeStyle=orthogonalEdgeStyle;startArrow=classic;startFill=1;" parent="1" source="6Vq29FL__fgsb-6oe8JI-7" target="3pUokIxNdo1e3XjNeTQa-14" edge="1">
                    <mxGeometry width="50" height="50" relative="1" as="geometry">
                        <mxPoint x="130" y="470" as="sourcePoint"/>
                        <mxPoint x="190" y="430" as="targetPoint"/>
                        <Array as="points">
                            <mxPoint x="30" y="235"/>
                        </Array>
                    </mxGeometry>
                </mxCell>
                <mxCell id="RutCKX_S9ad8p6_v9QBn-1" value="Tags" style="swimlane;fontStyle=0;childLayout=stackLayout;horizontal=1;startSize=26;horizontalStack=0;resizeParent=1;resizeParentMax=0;resizeLast=0;collapsible=1;marginBottom=0;align=center;fontSize=14;" parent="1" vertex="1">
                    <mxGeometry x="-490" y="446" width="160" height="56" as="geometry"/>
                </mxCell>
                <mxCell id="RutCKX_S9ad8p6_v9QBn-2" value="name" style="text;strokeColor=none;fillColor=none;spacingLeft=4;spacingRight=4;overflow=hidden;rotatable=0;points=[[0,0.5],[1,0.5]];portConstraint=eastwest;fontSize=12;fontStyle=4" parent="RutCKX_S9ad8p6_v9QBn-1" vertex="1">
                    <mxGeometry y="26" width="160" height="30" as="geometry"/>
                </mxCell>
                <mxCell id="RutCKX_S9ad8p6_v9QBn-7" value="has_tags" style="rhombus;whiteSpace=wrap;html=1;" parent="1" vertex="1">
                    <mxGeometry x="-460" y="358" width="100" height="50" as="geometry"/>
                </mxCell>
                <mxCell id="RutCKX_S9ad8p6_v9QBn-8" value="" style="endArrow=none;html=1;rounded=0;edgeStyle=orthogonalEdgeStyle;" parent="1" source="M0YwCfA4mjr5i9VfoFUj-1" target="RutCKX_S9ad8p6_v9QBn-7" edge="1">
                    <mxGeometry width="50" height="50" relative="1" as="geometry">
                        <mxPoint x="-560" y="163" as="sourcePoint"/>
                        <mxPoint x="-520" y="163" as="targetPoint"/>
                    </mxGeometry>
                </mxCell>
                <mxCell id="RutCKX_S9ad8p6_v9QBn-9" value="" style="endArrow=none;html=1;rounded=0;exitX=0.5;exitY=1;exitDx=0;exitDy=0;edgeStyle=orthogonalEdgeStyle;" parent="1" source="RutCKX_S9ad8p6_v9QBn-7" target="RutCKX_S9ad8p6_v9QBn-1" edge="1">
                    <mxGeometry width="50" height="50" relative="1" as="geometry">
                        <mxPoint x="-690" y="380" as="sourcePoint"/>
                        <mxPoint x="-650" y="380" as="targetPoint"/>
                    </mxGeometry>
                </mxCell>
                <mxCell id="6Vq29FL__fgsb-6oe8JI-1" value="Copy" style="swimlane;fontStyle=0;childLayout=stackLayout;horizontal=1;startSize=26;horizontalStack=0;resizeParent=1;resizeParentMax=0;resizeLast=0;collapsible=1;marginBottom=0;align=center;fontSize=14;" parent="1" vertex="1">
                    <mxGeometry x="-50" y="88" width="160" height="86" as="geometry"/>
                </mxCell>
                <mxCell id="6Vq29FL__fgsb-6oe8JI-2" value="&lt;u style=&quot;text-decoration:underline dotted;text-underline-position:under&quot;&gt;copy_ID&lt;/u&gt;" style="text;strokeColor=none;fillColor=none;spacingLeft=4;spacingRight=4;overflow=hidden;rotatable=0;points=[[0,0.5],[1,0.5]];portConstraint=eastwest;fontSize=12;fontStyle=4;html=1;" parent="6Vq29FL__fgsb-6oe8JI-1" vertex="1">
                    <mxGeometry y="26" width="160" height="30" as="geometry"/>
                </mxCell>
                <mxCell id="6Vq29FL__fgsb-6oe8JI-6" value="avilability" style="text;strokeColor=none;fillColor=none;spacingLeft=4;spacingRight=4;overflow=hidden;rotatable=0;points=[[0,0.5],[1,0.5]];portConstraint=eastwest;fontSize=12;" parent="6Vq29FL__fgsb-6oe8JI-1" vertex="1">
                    <mxGeometry y="56" width="160" height="30" as="geometry"/>
                </mxCell>
                <mxCell id="6Vq29FL__fgsb-6oe8JI-7" value="" style="swimlane;startSize=0;shadow=1;" parent="1" vertex="1">
                    <mxGeometry x="-60" y="78" width="180" height="110" as="geometry">
                        <mxRectangle x="710" y="550" width="50" height="40" as="alternateBounds"/>
                    </mxGeometry>
                </mxCell>
                <mxCell id="6Vq29FL__fgsb-6oe8JI-10" style="edgeStyle=orthogonalEdgeStyle;rounded=0;orthogonalLoop=1;jettySize=auto;html=1;exitX=1;exitY=0.5;exitDx=0;exitDy=0;shape=link;" parent="1" source="6Vq29FL__fgsb-6oe8JI-8" target="6Vq29FL__fgsb-6oe8JI-7" edge="1">
                    <mxGeometry relative="1" as="geometry"/>
                </mxCell>
                <mxCell id="6Vq29FL__fgsb-6oe8JI-11" style="edgeStyle=orthogonalEdgeStyle;rounded=0;orthogonalLoop=1;jettySize=auto;html=1;exitX=0.5;exitY=1;exitDx=0;exitDy=0;" parent="1" source="6Vq29FL__fgsb-6oe8JI-8" target="M0YwCfA4mjr5i9VfoFUj-1" edge="1">
                    <mxGeometry relative="1" as="geometry">
                        <mxPoint x="-10" y="469" as="targetPoint"/>
                        <Array as="points">
                            <mxPoint x="-220" y="270"/>
                            <mxPoint x="-220" y="270"/>
                        </Array>
                    </mxGeometry>
                </mxCell>
                <mxCell id="6Vq29FL__fgsb-6oe8JI-8" value="" style="rhombus;whiteSpace=wrap;html=1;shadow=1;" parent="1" vertex="1">
                    <mxGeometry x="-280" y="103" width="120" height="60" as="geometry"/>
                </mxCell>
                <mxCell id="6Vq29FL__fgsb-6oe8JI-9" value="book_copy" style="rhombus;whiteSpace=wrap;html=1;" parent="1" vertex="1">
                    <mxGeometry x="-270" y="108" width="100" height="50" as="geometry"/>
                </mxCell>
                <mxCell id="6Vq29FL__fgsb-6oe8JI-13" value="publication_year" style="rounded=0;whiteSpace=wrap;html=1;" parent="1" vertex="1">
                    <mxGeometry x="-300" y="560" width="100" height="30" as="geometry"/>
                </mxCell>
                <mxCell id="6Vq29FL__fgsb-6oe8JI-15" value="" style="endArrow=none;html=1;rounded=0;edgeStyle=orthogonalEdgeStyle;entryX=0;entryY=0.5;entryDx=0;entryDy=0;" parent="1" source="6Vq29FL__fgsb-6oe8JI-13" target="M0YwCfA4mjr5i9VfoFUj-25" edge="1">
                    <mxGeometry width="50" height="50" relative="1" as="geometry">
                        <mxPoint x="-20" y="747" as="sourcePoint"/>
                        <mxPoint x="30" y="697" as="targetPoint"/>
                    </mxGeometry>
                </mxCell>
                <mxCell id="m7qZ3WIpsGeV1RLe8qS_-6" style="edgeStyle=orthogonalEdgeStyle;rounded=0;orthogonalLoop=1;jettySize=auto;html=1;exitX=0.5;exitY=0;exitDx=0;exitDy=0;shape=link;" parent="1" source="m7qZ3WIpsGeV1RLe8qS_-5" target="M0YwCfA4mjr5i9VfoFUj-9" edge="1">
                    <mxGeometry relative="1" as="geometry"/>
                </mxCell>
                <mxCell id="m7qZ3WIpsGeV1RLe8qS_-7" style="edgeStyle=orthogonalEdgeStyle;rounded=0;orthogonalLoop=1;jettySize=auto;html=1;exitX=0.5;exitY=1;exitDx=0;exitDy=0;endArrow=none;endFill=0;" parent="1" source="m7qZ3WIpsGeV1RLe8qS_-5" target="M0YwCfA4mjr5i9VfoFUj-56" edge="1">
                    <mxGeometry relative="1" as="geometry">
                        <Array as="points">
                            <mxPoint x="780" y="623"/>
                            <mxPoint x="780" y="623"/>
                        </Array>
                    </mxGeometry>
                </mxCell>
                <mxCell id="m7qZ3WIpsGeV1RLe8qS_-5" value="in_charged_by" style="rhombus;whiteSpace=wrap;html=1;" parent="1" vertex="1">
                    <mxGeometry x="730" y="481" width="100" height="50" as="geometry"/>
                </mxCell>
                <mxCell id="m7qZ3WIpsGeV1RLe8qS_-53" style="edgeStyle=orthogonalEdgeStyle;shape=link;rounded=0;orthogonalLoop=1;jettySize=auto;html=1;exitX=0;exitY=0.5;exitDx=0;exitDy=0;endArrow=classic;endFill=1;" parent="1" source="m7qZ3WIpsGeV1RLe8qS_-45" target="m7qZ3WIpsGeV1RLe8qS_-33" edge="1">
                    <mxGeometry relative="1" as="geometry">
                        <mxPoint x="525.5250000000001" y="308.53100000000006" as="targetPoint"/>
                        <Array as="points"/>
                    </mxGeometry>
                </mxCell>
                <mxCell id="m7qZ3WIpsGeV1RLe8qS_-54" style="edgeStyle=orthogonalEdgeStyle;rounded=0;orthogonalLoop=1;jettySize=auto;html=1;endArrow=classic;endFill=1;exitX=1;exitY=0.5;exitDx=0;exitDy=0;" parent="1" source="m7qZ3WIpsGeV1RLe8qS_-45" target="M0YwCfA4mjr5i9VfoFUj-9" edge="1">
                    <mxGeometry relative="1" as="geometry">
                        <mxPoint x="640" y="348" as="sourcePoint"/>
                    </mxGeometry>
                </mxCell>
                <mxCell id="m7qZ3WIpsGeV1RLe8qS_-45" value="hosted_at" style="rhombus;whiteSpace=wrap;html=1;" parent="1" vertex="1">
                    <mxGeometry x="560" y="320" width="100" height="50" as="geometry"/>
                </mxCell>
                <mxCell id="m7qZ3WIpsGeV1RLe8qS_-47" style="edgeStyle=orthogonalEdgeStyle;rounded=0;orthogonalLoop=1;jettySize=auto;html=1;exitX=0.5;exitY=1;exitDx=0;exitDy=0;" parent="1" source="m7qZ3WIpsGeV1RLe8qS_-46" target="M0YwCfA4mjr5i9VfoFUj-56" edge="1">
                    <mxGeometry relative="1" as="geometry">
                        <Array as="points">
                            <mxPoint x="610" y="676"/>
                        </Array>
                    </mxGeometry>
                </mxCell>
                <mxCell id="m7qZ3WIpsGeV1RLe8qS_-49" style="edgeStyle=orthogonalEdgeStyle;rounded=0;orthogonalLoop=1;jettySize=auto;html=1;exitX=0;exitY=0.5;exitDx=0;exitDy=0;endArrow=classic;endFill=1;shape=link;" parent="1" source="m7qZ3WIpsGeV1RLe8qS_-46" target="m7qZ3WIpsGeV1RLe8qS_-33" edge="1">
                    <mxGeometry relative="1" as="geometry">
                        <mxPoint x="525" y="358.0344827586208" as="targetPoint"/>
                    </mxGeometry>
                </mxCell>
                <mxCell id="m7qZ3WIpsGeV1RLe8qS_-46" value="hosted_by" style="rhombus;whiteSpace=wrap;html=1;" parent="1" vertex="1">
                    <mxGeometry x="560" y="484" width="100" height="50" as="geometry"/>
                </mxCell>
                <mxCell id="m7qZ3WIpsGeV1RLe8qS_-56" style="edgeStyle=orthogonalEdgeStyle;rounded=0;orthogonalLoop=1;jettySize=auto;html=1;exitX=0;exitY=0.5;exitDx=0;exitDy=0;endArrow=none;endFill=0;" parent="1" source="m7qZ3WIpsGeV1RLe8qS_-55" target="M0YwCfA4mjr5i9VfoFUj-44" edge="1">
                    <mxGeometry relative="1" as="geometry"/>
                </mxCell>
                <mxCell id="m7qZ3WIpsGeV1RLe8qS_-57" style="edgeStyle=orthogonalEdgeStyle;rounded=0;orthogonalLoop=1;jettySize=auto;html=1;exitX=1;exitY=0.5;exitDx=0;exitDy=0;endArrow=none;endFill=0;" parent="1" source="m7qZ3WIpsGeV1RLe8qS_-55" target="m7qZ3WIpsGeV1RLe8qS_-33" edge="1">
                    <mxGeometry relative="1" as="geometry">
                        <Array as="points">
                            <mxPoint x="400" y="668"/>
                        </Array>
                        <mxPoint x="400" y="487.5" as="targetPoint"/>
                    </mxGeometry>
                </mxCell>
                <mxCell id="m7qZ3WIpsGeV1RLe8qS_-55" value="registered_by" style="rhombus;whiteSpace=wrap;html=1;" parent="1" vertex="1">
                    <mxGeometry x="350" y="643" width="100" height="50" as="geometry"/>
                </mxCell>
                <mxCell id="m7qZ3WIpsGeV1RLe8qS_-61" value="Security_question" style="swimlane;fontStyle=0;childLayout=stackLayout;horizontal=1;startSize=26;horizontalStack=0;resizeParent=1;resizeParentMax=0;resizeLast=0;collapsible=1;marginBottom=0;align=center;fontSize=14;" parent="1" vertex="1">
                    <mxGeometry x="690" y="821" width="160" height="116" as="geometry"/>
                </mxCell>
                <mxCell id="m7qZ3WIpsGeV1RLe8qS_-62" value="&lt;u style=&quot;text-decoration:underline dotted;text-underline-position:under&quot;&gt;question_ID&lt;/u&gt;" style="text;strokeColor=none;fillColor=none;spacingLeft=4;spacingRight=4;overflow=hidden;rotatable=0;points=[[0,0.5],[1,0.5]];portConstraint=eastwest;fontSize=12;fontStyle=4;html=1;" parent="m7qZ3WIpsGeV1RLe8qS_-61" vertex="1">
                    <mxGeometry y="26" width="160" height="30" as="geometry"/>
                </mxCell>
                <mxCell id="m7qZ3WIpsGeV1RLe8qS_-63" value="question_prompt" style="text;strokeColor=none;fillColor=none;spacingLeft=4;spacingRight=4;overflow=hidden;rotatable=0;points=[[0,0.5],[1,0.5]];portConstraint=eastwest;fontSize=12;fontStyle=0" parent="m7qZ3WIpsGeV1RLe8qS_-61" vertex="1">
                    <mxGeometry y="56" width="160" height="30" as="geometry"/>
                </mxCell>
                <mxCell id="m7qZ3WIpsGeV1RLe8qS_-64" value="answer" style="text;strokeColor=none;fillColor=none;spacingLeft=4;spacingRight=4;overflow=hidden;rotatable=0;points=[[0,0.5],[1,0.5]];portConstraint=eastwest;fontSize=12;fontStyle=0" parent="m7qZ3WIpsGeV1RLe8qS_-61" vertex="1">
                    <mxGeometry y="86" width="160" height="30" as="geometry"/>
                </mxCell>
                <mxCell id="m7qZ3WIpsGeV1RLe8qS_-77" style="edgeStyle=orthogonalEdgeStyle;rounded=0;sketch=0;orthogonalLoop=1;jettySize=auto;html=1;entryX=1;entryY=0.5;entryDx=0;entryDy=0;endArrow=none;endFill=0;shape=link;" parent="1" source="m7qZ3WIpsGeV1RLe8qS_-72" target="m7qZ3WIpsGeV1RLe8qS_-75" edge="1">
                    <mxGeometry relative="1" as="geometry"/>
                </mxCell>
                <mxCell id="m7qZ3WIpsGeV1RLe8qS_-72" value="" style="swimlane;startSize=0;" parent="1" vertex="1">
                    <mxGeometry x="680" y="811" width="180" height="140" as="geometry"/>
                </mxCell>
                <mxCell id="m7qZ3WIpsGeV1RLe8qS_-78" style="edgeStyle=orthogonalEdgeStyle;rounded=0;sketch=0;orthogonalLoop=1;jettySize=auto;html=1;exitX=0;exitY=0.5;exitDx=0;exitDy=0;endArrow=classic;endFill=1;" parent="1" source="m7qZ3WIpsGeV1RLe8qS_-75" target="M0YwCfA4mjr5i9VfoFUj-52" edge="1">
                    <mxGeometry relative="1" as="geometry"/>
                </mxCell>
                <mxCell id="m7qZ3WIpsGeV1RLe8qS_-75" value="" style="rhombus;whiteSpace=wrap;html=1;shadow=1;" parent="1" vertex="1">
                    <mxGeometry x="530" y="851" width="120" height="60" as="geometry"/>
                </mxCell>
                <mxCell id="m7qZ3WIpsGeV1RLe8qS_-76" value="recovered_by" style="rhombus;whiteSpace=wrap;html=1;" parent="1" vertex="1">
                    <mxGeometry x="540" y="856" width="100" height="50" as="geometry"/>
                </mxCell>
                <mxCell id="3pUokIxNdo1e3XjNeTQa-1" value="Waitlist" style="swimlane;fontStyle=0;childLayout=stackLayout;horizontal=1;startSize=26;horizontalStack=0;resizeParent=1;resizeParentMax=0;resizeLast=0;collapsible=1;marginBottom=0;align=center;fontSize=14;" parent="1" vertex="1">
                    <mxGeometry x="-50" y="410" width="160" height="86" as="geometry"/>
                </mxCell>
                <mxCell id="3pUokIxNdo1e3XjNeTQa-2" value="&lt;u style=&quot;text-decoration:underline dotted;text-underline-position:under&quot;&gt;wait_ID&lt;/u&gt;" style="text;strokeColor=none;fillColor=none;spacingLeft=4;spacingRight=4;overflow=hidden;rotatable=0;points=[[0,0.5],[1,0.5]];portConstraint=eastwest;fontSize=12;fontStyle=4;html=1;" parent="3pUokIxNdo1e3XjNeTQa-1" vertex="1">
                    <mxGeometry y="26" width="160" height="30" as="geometry"/>
                </mxCell>
                <mxCell id="3pUokIxNdo1e3XjNeTQa-3" value="priority" style="text;strokeColor=none;fillColor=none;spacingLeft=4;spacingRight=4;overflow=hidden;rotatable=0;points=[[0,0.5],[1,0.5]];portConstraint=eastwest;fontSize=12;" parent="3pUokIxNdo1e3XjNeTQa-1" vertex="1">
                    <mxGeometry y="56" width="160" height="30" as="geometry"/>
                </mxCell>
                <mxCell id="3pUokIxNdo1e3XjNeTQa-4" value="" style="swimlane;startSize=0;shadow=1;" parent="1" vertex="1">
                    <mxGeometry x="-60" y="400" width="180" height="110" as="geometry">
                        <mxRectangle x="710" y="550" width="50" height="40" as="alternateBounds"/>
                    </mxGeometry>
                </mxCell>
                <mxCell id="3pUokIxNdo1e3XjNeTQa-7" style="edgeStyle=orthogonalEdgeStyle;rounded=0;orthogonalLoop=1;jettySize=auto;html=1;exitX=0.5;exitY=1;exitDx=0;exitDy=0;" parent="1" source="3pUokIxNdo1e3XjNeTQa-5" target="M0YwCfA4mjr5i9VfoFUj-44" edge="1">
                    <mxGeometry relative="1" as="geometry"/>
                </mxCell>
                <mxCell id="3pUokIxNdo1e3XjNeTQa-8" style="edgeStyle=orthogonalEdgeStyle;rounded=0;orthogonalLoop=1;jettySize=auto;html=1;exitX=0.5;exitY=0;exitDx=0;exitDy=0;shape=link;" parent="1" source="3pUokIxNdo1e3XjNeTQa-5" target="3pUokIxNdo1e3XjNeTQa-4" edge="1">
                    <mxGeometry relative="1" as="geometry"/>
                </mxCell>
                <mxCell id="3pUokIxNdo1e3XjNeTQa-5" value="made_by" style="rhombus;whiteSpace=wrap;html=1;" parent="1" vertex="1">
                    <mxGeometry x="-20" y="570" width="100" height="50" as="geometry"/>
                </mxCell>
                <mxCell id="3pUokIxNdo1e3XjNeTQa-9" style="edgeStyle=orthogonalEdgeStyle;shape=link;rounded=0;orthogonalLoop=1;jettySize=auto;html=1;" parent="1" source="3pUokIxNdo1e3XjNeTQa-15" target="3pUokIxNdo1e3XjNeTQa-4" edge="1">
                    <mxGeometry relative="1" as="geometry"/>
                </mxCell>
                <mxCell id="3pUokIxNdo1e3XjNeTQa-10" style="edgeStyle=orthogonalEdgeStyle;rounded=0;orthogonalLoop=1;jettySize=auto;html=1;exitX=0;exitY=0.5;exitDx=0;exitDy=0;" parent="1" source="3pUokIxNdo1e3XjNeTQa-15" target="M0YwCfA4mjr5i9VfoFUj-1" edge="1">
                    <mxGeometry relative="1" as="geometry">
                        <Array as="points">
                            <mxPoint x="-30" y="330"/>
                        </Array>
                    </mxGeometry>
                </mxCell>
                <mxCell id="3pUokIxNdo1e3XjNeTQa-6" value="wait_on" style="rhombus;whiteSpace=wrap;html=1;" parent="1" vertex="1">
                    <mxGeometry x="-20" y="303" width="100" height="50" as="geometry"/>
                </mxCell>
                <mxCell id="3pUokIxNdo1e3XjNeTQa-12" value="" style="swimlane;startSize=0;" parent="1" vertex="1">
                    <mxGeometry x="140" y="318" width="180" height="192" as="geometry"/>
                </mxCell>
                <mxCell id="YyJV3YzGnMf7hOjJCWoC-1" value="" style="endArrow=none;dashed=1;html=1;rounded=0;" parent="1" edge="1">
                    <mxGeometry width="50" height="50" relative="1" as="geometry">
                        <mxPoint x="320" y="790" as="sourcePoint"/>
                        <mxPoint x="410" y="790" as="targetPoint"/>
                    </mxGeometry>
                </mxCell>
                <mxCell id="YyJV3YzGnMf7hOjJCWoC-2" value="total" style="text;html=1;align=center;verticalAlign=middle;resizable=0;points=[];autosize=1;strokeColor=none;fillColor=none;" parent="1" vertex="1">
                    <mxGeometry x="280" y="776" width="50" height="30" as="geometry"/>
                </mxCell>
                <mxCell id="m7qZ3WIpsGeV1RLe8qS_-33" value="Event" style="swimlane;fontStyle=0;childLayout=stackLayout;horizontal=1;startSize=26;horizontalStack=0;resizeParent=1;resizeParentMax=0;resizeLast=0;collapsible=1;marginBottom=0;align=center;fontSize=14;" parent="1" vertex="1">
                    <mxGeometry x="350" y="227" width="160" height="236" as="geometry"/>
                </mxCell>
                <mxCell id="AqIdlSZo3u4nEyOkJ_SE-5" value="ID" style="text;strokeColor=none;fillColor=none;spacingLeft=4;spacingRight=4;overflow=hidden;rotatable=0;points=[[0,0.5],[1,0.5]];portConstraint=eastwest;fontSize=12;fontStyle=4" parent="m7qZ3WIpsGeV1RLe8qS_-33" vertex="1">
                    <mxGeometry y="26" width="160" height="30" as="geometry"/>
                </mxCell>
                <mxCell id="AqIdlSZo3u4nEyOkJ_SE-7" value="start_date_time" style="text;strokeColor=none;fillColor=none;spacingLeft=4;spacingRight=4;overflow=hidden;rotatable=0;points=[[0,0.5],[1,0.5]];portConstraint=eastwest;fontSize=12;fontStyle=0" parent="m7qZ3WIpsGeV1RLe8qS_-33" vertex="1">
                    <mxGeometry y="56" width="160" height="30" as="geometry"/>
                </mxCell>
                <mxCell id="AqIdlSZo3u4nEyOkJ_SE-6" value="end_date_time" style="text;strokeColor=none;fillColor=none;spacingLeft=4;spacingRight=4;overflow=hidden;rotatable=0;points=[[0,0.5],[1,0.5]];portConstraint=eastwest;fontSize=12;fontStyle=0" parent="m7qZ3WIpsGeV1RLe8qS_-33" vertex="1">
                    <mxGeometry y="86" width="160" height="30" as="geometry"/>
                </mxCell>
                <mxCell id="m7qZ3WIpsGeV1RLe8qS_-38" value="name" style="text;strokeColor=none;fillColor=none;spacingLeft=4;spacingRight=4;overflow=hidden;rotatable=0;points=[[0,0.5],[1,0.5]];portConstraint=eastwest;fontSize=12;fontStyle=0" parent="m7qZ3WIpsGeV1RLe8qS_-33" vertex="1">
                    <mxGeometry y="116" width="160" height="30" as="geometry"/>
                </mxCell>
                <mxCell id="m7qZ3WIpsGeV1RLe8qS_-36" value="capacity" style="text;strokeColor=none;fillColor=none;spacingLeft=4;spacingRight=4;overflow=hidden;rotatable=0;points=[[0,0.5],[1,0.5]];portConstraint=eastwest;fontSize=12;fontStyle=0" parent="m7qZ3WIpsGeV1RLe8qS_-33" vertex="1">
                    <mxGeometry y="146" width="160" height="30" as="geometry"/>
                </mxCell>
                <mxCell id="a91NYEVBYUr5msId86aO-2" value="current_amount" style="text;strokeColor=none;fillColor=none;align=left;verticalAlign=middle;spacingLeft=4;spacingRight=4;overflow=hidden;points=[[0,0.5],[1,0.5]];portConstraint=eastwest;rotatable=0;whiteSpace=wrap;html=1;" parent="m7qZ3WIpsGeV1RLe8qS_-33" vertex="1">
                    <mxGeometry y="176" width="160" height="30" as="geometry"/>
                </mxCell>
                <mxCell id="AqIdlSZo3u4nEyOkJ_SE-3" value="description" style="text;strokeColor=none;fillColor=none;spacingLeft=4;spacingRight=4;overflow=hidden;rotatable=0;points=[[0,0.5],[1,0.5]];portConstraint=eastwest;fontSize=12;fontStyle=0" parent="m7qZ3WIpsGeV1RLe8qS_-33" vertex="1">
                    <mxGeometry y="206" width="160" height="30" as="geometry"/>
                </mxCell>
            </root>
        </mxGraphModel>
    </diagram>
</mxfile>